<svg width="88" height="11" viewBox="0 0 88 11" fill="none" xmlns="http://www.w3.org/2000/svg">
<path d="M5.954 5.268C6.50867 5.38067 6.95067 5.645 7.28 6.061C7.618 6.46833 7.787 6.94933 7.787 7.504C7.787 8.27533 7.527 8.88633 7.007 9.337C6.49567 9.779 5.75033 10 4.771 10H0.832V0.822H4.693C5.62033 0.822 6.331 1.02567 6.825 1.433C7.32767 1.84033 7.579 2.41233 7.579 3.149C7.579 3.721 7.42733 4.189 7.124 4.553C6.82933 4.917 6.43933 5.15533 5.954 5.268ZM2.665 4.67H4.316C4.77533 4.67 5.122 4.57033 5.356 4.371C5.59867 4.163 5.72 3.86833 5.72 3.487C5.72 3.10567 5.603 2.811 5.369 2.603C5.135 2.395 4.77533 2.291 4.29 2.291H2.665V4.67ZM4.407 8.505C4.89233 8.505 5.265 8.401 5.525 8.193C5.785 7.97633 5.915 7.66433 5.915 7.257C5.915 6.84967 5.78067 6.53767 5.512 6.321C5.252 6.09567 4.87933 5.983 4.394 5.983H2.665V8.505H4.407ZM11.8923 2.707C12.4989 2.707 13.0189 2.85 13.4523 3.136C13.8856 3.422 14.1933 3.80767 14.3753 4.293V2.798H16.1953V10H14.3753V8.492C14.1933 8.97733 13.8856 9.36733 13.4523 9.662C13.0189 9.948 12.4989 10.091 11.8923 10.091C11.2856 10.091 10.7396 9.94367 10.2543 9.649C9.76892 9.35433 9.38759 8.92967 9.11026 8.375C8.84159 7.81167 8.70726 7.153 8.70726 6.399C8.70726 5.645 8.84159 4.99067 9.11026 4.436C9.38759 3.87267 9.76892 3.44367 10.2543 3.149C10.7396 2.85433 11.2856 2.707 11.8923 2.707ZM12.4643 4.306C11.8923 4.306 11.4329 4.49233 11.0863 4.865C10.7396 5.23767 10.5663 5.749 10.5663 6.399C10.5663 7.049 10.7396 7.56033 11.0863 7.933C11.4329 8.297 11.8923 8.479 12.4643 8.479C13.0189 8.479 13.4739 8.29267 13.8293 7.92C14.1933 7.53867 14.3753 7.03167 14.3753 6.399C14.3753 5.75767 14.1933 5.25067 13.8293 4.878C13.4739 4.49667 13.0189 4.306 12.4643 4.306ZM21.0934 2.707C22.0207 2.707 22.7921 2.95833 23.4074 3.461C24.0314 3.96367 24.4214 4.64833 24.5774 5.515H22.6404C22.5624 5.13367 22.3847 4.83467 22.1074 4.618C21.8301 4.39267 21.4791 4.28 21.0544 4.28C20.5691 4.28 20.1617 4.462 19.8324 4.826C19.5117 5.18133 19.3514 5.70567 19.3514 6.399C19.3514 7.09233 19.5117 7.621 19.8324 7.985C20.1617 8.34033 20.5691 8.518 21.0544 8.518C21.4791 8.518 21.8301 8.40967 22.1074 8.193C22.3847 7.96767 22.5624 7.66433 22.6404 7.283H24.5774C24.4214 8.14967 24.0314 8.83433 23.4074 9.337C22.7921 9.83967 22.0207 10.091 21.0934 10.091C20.3914 10.091 19.7674 9.94367 19.2214 9.649C18.6754 9.34567 18.2507 8.91667 17.9474 8.362C17.6441 7.80733 17.4924 7.153 17.4924 6.399C17.4924 5.645 17.6441 4.99067 17.9474 4.436C18.2507 3.87267 18.6754 3.44367 19.2214 3.149C19.7674 2.85433 20.3914 2.707 21.0934 2.707ZM30.0919 10L27.7129 6.854V10H25.8799V0.38H27.7129V5.788L30.0789 2.798H32.2499L29.2209 6.386L32.3279 10H30.0919ZM37.8818 2.278V4.657H41.1318V6.061H37.8818V8.531H41.5218V10H36.0488V0.822H41.5218V2.278H37.8818ZM47.1689 2.694C48.0009 2.694 48.6639 2.967 49.1579 3.513C49.6519 4.059 49.8989 4.826 49.8989 5.814V10H48.0789V6.022C48.0789 5.45 47.9315 5.008 47.6369 4.696C47.3422 4.37533 46.9392 4.215 46.4279 4.215C45.9079 4.215 45.4919 4.384 45.1799 4.722C44.8679 5.06 44.7119 5.54533 44.7119 6.178V10H42.8789V2.798H44.7119V4.241C44.9025 3.75567 45.2145 3.37867 45.6479 3.11C46.0899 2.83267 46.5969 2.694 47.1689 2.694ZM54.3327 2.707C54.9394 2.707 55.455 2.85 55.8797 3.136C56.313 3.422 56.625 3.80767 56.8157 4.293V0.38H58.6357V10H56.8157V8.492C56.625 8.97733 56.313 9.36733 55.8797 9.662C55.455 9.948 54.9394 10.091 54.3327 10.091C53.726 10.091 53.18 9.94367 52.6947 9.649C52.2094 9.35433 51.828 8.92967 51.5507 8.375C51.282 7.81167 51.1477 7.153 51.1477 6.399C51.1477 5.645 51.282 4.99067 51.5507 4.436C51.828 3.87267 52.2094 3.44367 52.6947 3.149C53.18 2.85433 53.726 2.707 54.3327 2.707ZM54.9047 4.306C54.3327 4.306 53.8734 4.49233 53.5267 4.865C53.18 5.23767 53.0067 5.749 53.0067 6.399C53.0067 7.049 53.18 7.56033 53.5267 7.933C53.8734 8.297 54.3327 8.479 54.9047 8.479C55.4594 8.479 55.9144 8.29267 56.2697 7.92C56.6337 7.53867 56.8157 7.03167 56.8157 6.399C56.8157 5.75767 56.6337 5.25067 56.2697 4.878C55.9144 4.49667 55.4594 4.306 54.9047 4.306ZM71.2009 5.398C71.2009 6.308 71.0102 7.10967 70.6289 7.803C70.2476 8.49633 69.6929 9.038 68.9649 9.428C68.2456 9.80933 67.3876 10 66.3909 10H63.1279V0.822H66.3909C67.3876 0.822 68.2456 1.01267 68.9649 1.394C69.6929 1.76667 70.2476 2.29967 70.6289 2.993C71.0102 3.67767 71.2009 4.47933 71.2009 5.398ZM66.2349 8.362C67.2229 8.362 67.9856 8.102 68.5229 7.582C69.0689 7.062 69.3419 6.334 69.3419 5.398C69.3419 4.45333 69.0689 3.721 68.5229 3.201C67.9856 2.681 67.2229 2.421 66.2349 2.421H64.9609V8.362H66.2349ZM79.3462 6.126C79.3462 6.308 79.3245 6.516 79.2812 6.75H74.0032C74.0292 7.39133 74.2025 7.86367 74.5232 8.167C74.8439 8.47033 75.2425 8.622 75.7192 8.622C76.1439 8.622 76.4949 8.518 76.7722 8.31C77.0582 8.102 77.2402 7.82033 77.3182 7.465H79.2552C79.1599 7.96767 78.9562 8.41833 78.6442 8.817C78.3322 9.21567 77.9292 9.52767 77.4352 9.753C76.9499 9.97833 76.4082 10.091 75.8102 10.091C75.1082 10.091 74.4842 9.94367 73.9382 9.649C73.3922 9.34567 72.9675 8.91667 72.6642 8.362C72.3609 7.80733 72.2092 7.153 72.2092 6.399C72.2092 5.645 72.3609 4.99067 72.6642 4.436C72.9675 3.87267 73.3922 3.44367 73.9382 3.149C74.4842 2.85433 75.1082 2.707 75.8102 2.707C76.5209 2.707 77.1405 2.85433 77.6692 3.149C78.2065 3.44367 78.6182 3.851 78.9042 4.371C79.1989 4.88233 79.3462 5.46733 79.3462 6.126ZM77.5002 5.944C77.5262 5.35467 77.3702 4.90833 77.0322 4.605C76.7029 4.30167 76.2955 4.15 75.8102 4.15C75.3162 4.15 74.9002 4.30167 74.5622 4.605C74.2242 4.90833 74.0379 5.35467 74.0032 5.944H77.5002ZM83.7804 8.167L85.6004 2.798H87.5504L84.8854 10H82.6494L79.9844 2.798H81.9474L83.7804 8.167Z" fill="#7A869A"/>
</svg>
