<svg width="28" height="11" viewBox="0 0 28 11" fill="none" xmlns="http://www.w3.org/2000/svg">
<path d="M0.481 8.557C3.419 6.52033 4.888 4.83033 4.888 3.487C4.888 3.07967 4.78833 2.759 4.589 2.525C4.39833 2.291 4.095 2.174 3.679 2.174C2.821 2.174 2.366 2.759 2.314 3.929H0.533C0.585 2.84567 0.914333 2.02667 1.521 1.472C2.12767 0.908666 2.89467 0.627 3.822 0.627C4.76667 0.627 5.49033 0.874 5.993 1.368C6.50433 1.85333 6.76 2.50333 6.76 3.318C6.76 3.95933 6.56933 4.605 6.188 5.255C5.81533 5.89633 5.33867 6.49 4.758 7.036C4.17733 7.57333 3.56633 8.037 2.925 8.427H6.942V9.922H0.481V8.557ZM7.97428 5.333C7.97428 8.44433 9.14428 10 11.4843 10C12.7236 10 13.6163 9.584 14.1623 8.752C14.7083 7.92 14.9813 6.78033 14.9813 5.333C14.9813 3.89433 14.7083 2.759 14.1623 1.927C13.6163 1.095 12.7236 0.679 11.4843 0.679C9.14428 0.679 7.97428 2.23033 7.97428 5.333ZM13.1743 5.333C13.1743 6.27767 13.0573 7.00567 12.8233 7.517C12.5979 8.01967 12.1516 8.271 11.4843 8.271C10.8083 8.271 10.3533 8.01967 10.1193 7.517C9.89395 7.00567 9.78128 6.27767 9.78128 5.333C9.78128 4.397 9.89395 3.67767 10.1193 3.175C10.3533 2.66367 10.8083 2.408 11.4843 2.408C12.1516 2.408 12.5979 2.66367 12.8233 3.175C13.0573 3.67767 13.1743 4.397 13.1743 5.333ZM15.7331 2.538V0.822H19.0351V10H17.1111V2.538H15.7331ZM27.0442 2.252H22.6892V4.566C22.8885 4.332 23.1615 4.14567 23.5082 4.007C23.8635 3.85967 24.2535 3.786 24.6782 3.786C25.3108 3.786 25.8352 3.92467 26.2512 4.202C26.6758 4.47067 26.9878 4.83467 27.1872 5.294C27.3952 5.74467 27.4992 6.24733 27.4992 6.802C27.4992 7.78133 27.2218 8.56567 26.6672 9.155C26.1212 9.74433 25.3368 10.039 24.3142 10.039C23.6468 10.039 23.0662 9.922 22.5722 9.688C22.0782 9.44533 21.6925 9.11167 21.4152 8.687C21.1378 8.25367 20.9862 7.751 20.9602 7.179H22.7412C22.8105 7.569 22.9708 7.881 23.2222 8.115C23.4735 8.34033 23.8072 8.453 24.2232 8.453C24.7258 8.453 25.0985 8.30133 25.3412 7.998C25.5925 7.686 25.7182 7.27433 25.7182 6.763C25.7182 6.27767 25.5882 5.90067 25.3282 5.632C25.0682 5.36333 24.6998 5.229 24.2232 5.229C23.8765 5.229 23.5818 5.307 23.3392 5.463C23.0965 5.61033 22.9188 5.80967 22.8062 6.061H21.0252V0.64H27.0442V2.252Z" fill="#7A869A"/>
</svg>
